<?xml version="1.0" encoding="utf-8"?>
<svg viewBox="394.543 220.686 111.327 197.344" xmlns="http://www.w3.org/2000/svg">
  <defs>
    <clipPath id="clipPath18" clipPathUnits="userSpaceOnUse">
      <path id="path16" d="M 0,314.03 H 705.08 V 0 H 0 Z"/>
    </clipPath>
  </defs>
  <g transform="matrix(1.333333, 0, 0, 1.333333, 0.000069, 219.346756)" id="g10" style="">
    <g id="g12">
      <g clip-path="url(#clipPath18)" id="g14">
        <g transform="translate(338.9563,30.0068)" id="g736">
          <path id="path738" style="fill-opacity: 1; fill-rule: nonzero; stroke: none; fill: rgb(50, 50, 50); opacity: 0.12;" d="M 0,0 C -0.02,0.03 -0.03,0.061 -0.04,0.081 -0.415,0.961 -0.728,1.861 -1.012,2.772 -1.366,2.307 -1.77,1.861 -2.256,1.467 -2.347,1.396 -2.448,1.325 -2.549,1.255 -2.711,1.062 -2.883,0.88 -3.065,0.688 -3.187,0.566 -3.318,0.445 -3.46,0.324 c 0.324,0.03 0.658,0.05 0.981,0.05 0.597,0 1.194,-0.081 1.811,-0.222 C -0.435,0.121 -0.223,0.061 0,0"/>
        </g>
        <g transform="translate(324.8777,146.3567)" id="g740">
          <path id="path742" style="fill-opacity: 1; fill-rule: nonzero; stroke: none; fill: rgb(50, 50, 50); opacity: 0.12;" d="M 0,0 C 0.405,-0.001 0.945,-0.338 1.964,0.035 1.802,-0.352 1.383,-0.542 0.992,-0.551 0.6,-0.555 0.176,-0.38 0,0 m -1.288,-2.046 c 0.314,-0.223 0.749,-0.395 1.204,-0.526 0.02,-0.01 0.061,-0.01 0.091,-0.021 1.416,-0.091 2.853,-0.364 4.229,-0.667 0.384,-0.081 0.778,-0.172 1.173,-0.273 -0.202,0.141 -0.384,0.303 -0.546,0.495 -0.344,0.405 -0.567,0.951 -0.547,1.477 0.011,0.304 0.092,0.597 0.233,0.85 -0.01,0.182 0,0.364 0.03,0.567 C 4.61,0.088 4.721,0.311 4.842,0.523 4.569,0.513 4.286,0.493 4.013,0.473 4.043,0.25 3.993,-0.003 3.892,-0.185 3.659,-0.62 3.275,-0.832 2.9,-0.954 2.526,-1.065 2.111,-1.105 1.767,-0.934 c 0.364,0.021 0.688,0.162 0.961,0.344 0.273,0.183 0.506,0.435 0.567,0.658 0.03,0.121 0.03,0.223 0,0.314 C 3.275,0.452 3.214,0.513 3.102,0.584 2.89,0.726 2.566,0.837 2.253,0.908 1.605,1.069 0.958,1.1 0.341,0.938 0.118,0.877 -0.094,0.786 -0.286,0.665 -0.408,0.503 -0.499,0.321 -0.539,0.139 -0.59,-0.134 -0.57,-0.407 -0.388,-0.6 c 0.193,-0.202 0.526,-0.323 0.88,-0.414 -0.344,-0.132 -0.768,-0.152 -1.143,0.08 -0.192,0.112 -0.333,0.324 -0.404,0.537 -0.01,0.05 -0.01,0.111 -0.021,0.161 -0.01,-0.03 -0.03,-0.06 -0.04,-0.091 -0.01,0.132 0,0.274 0.03,0.446 -0.07,-0.112 -0.111,-0.233 -0.131,-0.344 -0.041,-0.294 0.101,-0.557 0.293,-0.769 0.405,-0.425 1.032,-0.546 1.74,-0.638 0.688,-0.101 1.356,-0.161 1.973,-0.01 0.587,0.172 1.194,0.577 1.386,1.295 C 4.266,-0.711 4.155,-1.126 3.932,-1.46 3.709,-1.793 3.396,-2.077 3.011,-2.249 2.253,-2.593 1.423,-2.542 0.695,-2.451 c -0.364,0.061 -0.749,0.132 -1.133,0.283 -0.375,0.162 -0.759,0.415 -0.992,0.779 -0.02,0.031 -0.03,0.061 -0.05,0.091 -0.02,-0.04 -0.051,-0.07 -0.061,-0.111 -0.061,-0.152 -0.061,-0.243 -0.03,-0.324 0.04,-0.091 0.131,-0.212 0.283,-0.313"/>
        </g>
        <g transform="translate(325.0152,4.7953)" id="g744">
          <path id="path746" style="fill-opacity: 1; fill-rule: nonzero; stroke: none; fill: rgb(50, 50, 50); opacity: 0.12;" d="M 0,0 C -1.17,0.726 -2.27,1.565 -3.314,2.475 -4.336,3.408 -5.282,4.425 -6.162,5.5 -7.027,6.588 -7.795,7.75 -8.5,8.951 c -0.687,1.211 -1.288,2.473 -1.796,3.773 -0.492,1.308 -0.898,2.643 -1.227,3.999 -0.31,1.359 -0.522,2.739 -0.672,4.123 -0.132,1.386 -0.191,2.777 -0.183,4.167 0.063,2.779 0.396,5.543 0.983,8.248 0.614,2.7 1.432,5.343 2.47,7.891 2.055,5.109 4.813,9.87 7.92,14.347 -2.522,-4.832 -4.929,-9.712 -6.715,-14.8 -1.779,-5.078 -2.942,-10.373 -3.003,-15.711 -0.016,-1.332 0.025,-2.663 0.139,-3.988 0.126,-1.324 0.331,-2.637 0.592,-3.939 0.277,-1.298 0.627,-2.581 1.058,-3.834 0.455,-1.246 0.975,-2.469 1.57,-3.659 C -4.936,4.846 -1.169,0.715 3.697,-1.783 2.42,-1.306 1.181,-0.71 0,0 m -7.847,3.471 c -1.882,1.766 -3.476,3.853 -4.689,6.144 l -0.835,1.753 c -0.235,0.604 -0.481,1.202 -0.704,1.809 l -0.545,1.862 c -0.143,0.631 -0.268,1.265 -0.389,1.897 -0.413,2.543 -0.39,5.163 0.2,7.636 0.095,-2.535 0.436,-4.994 1.06,-7.371 0.182,-0.588 0.359,-1.174 0.521,-1.763 l 0.622,-1.724 c 0.249,-0.559 0.474,-1.125 0.712,-1.687 l 0.82,-1.635 c 1.15,-2.149 2.533,-4.177 4.154,-6.021 1.623,-1.844 3.471,-3.502 5.519,-4.998 -2.381,0.89 -4.568,2.334 -6.446,4.098 M -9.743,0.984 c -1.417,1.006 -2.678,2.236 -3.75,3.61 -1.07,1.375 -1.958,2.897 -2.589,4.515 -0.64,1.612 -1.047,3.318 -1.084,5.039 0.706,-1.565 1.425,-3.056 2.244,-4.481 0.828,-1.419 1.731,-2.774 2.734,-4.054 1,-1.283 2.096,-2.487 3.271,-3.634 1.184,-1.14 2.455,-2.2 3.802,-3.267 -1.662,0.452 -3.22,1.26 -4.628,2.272 m -7.042,36.855 c 0.465,1.441 1.313,2.456 1.893,2.269 0.58,-0.187 0.674,-1.507 0.209,-2.947 -0.465,-1.44 -1.313,-2.456 -1.893,-2.269 -0.581,0.188 -0.674,1.507 -0.209,2.947 m 0.144,9.062 c 0.397,0.85 1.167,1.331 1.72,1.073 0.553,-0.258 0.679,-1.157 0.282,-2.007 -0.397,-0.851 -1.167,-1.331 -1.72,-1.073 -0.552,0.258 -0.679,1.157 -0.282,2.007 m 0.952,7.534 c 0.371,0.874 1.013,1.438 1.434,1.26 0.421,-0.179 0.462,-1.032 0.091,-1.906 -0.37,-0.874 -1.012,-1.438 -1.433,-1.26 -0.421,0.179 -0.462,1.032 -0.092,1.906 m 3.525,-8.281 c 0.449,0.606 1.21,0.802 1.7,0.44 0.49,-0.364 0.524,-1.149 0.075,-1.754 -0.448,-0.606 -1.209,-0.802 -1.699,-0.44 -0.49,0.364 -0.524,1.149 -0.076,1.754 m 3.3,10.004 c 0.535,1.082 1.412,1.739 1.959,1.468 0.547,-0.27 0.556,-1.366 0.02,-2.447 -0.535,-1.082 -1.412,-1.739 -1.959,-1.468 -0.546,0.27 -0.555,1.366 -0.02,2.447 m 19.446,19.967 c 1.403,2.092 2.854,4.15 4.282,6.224 1.444,2.065 2.904,4.104 4.263,6.196 1.379,2.078 2.666,4.207 3.756,6.424 1.122,2.205 1.991,4.517 2.597,6.899 0.566,2.39 0.87,4.861 0.716,7.329 -0.108,2.472 -0.727,4.92 -1.794,7.207 1.391,-2.108 2.263,-4.585 2.604,-7.128 0.354,-2.547 0.22,-5.153 -0.263,-7.683 -0.482,-2.538 -1.37,-4.982 -2.447,-7.304 C 23.207,91.964 21.892,89.768 20.51,87.636 17.673,83.416 14.646,79.415 11.63,75.376 8.602,71.35 5.526,67.359 2.318,63.462 c 2.651,4.295 5.434,8.496 8.264,12.663 m -4.627,3.58 C 6.587,80.322 7.359,80.557 7.678,80.23 7.998,79.902 7.745,79.137 7.112,78.52 6.48,77.902 5.709,77.667 5.389,77.994 5.07,78.322 5.323,79.087 5.955,79.705 M 9.49,79 c 0.909,1.356 1.871,2.673 2.842,3.982 0.988,1.298 1.987,2.586 3.037,3.837 1.045,1.254 2.121,2.484 3.285,3.649 -0.796,-1.441 -1.681,-2.816 -2.596,-4.167 -0.91,-1.356 -1.871,-2.673 -2.844,-3.982 C 12.225,81.023 11.226,79.734 10.176,78.484 9.131,77.23 8.055,75.999 6.892,74.833 7.69,76.274 8.574,77.648 9.49,79 m 12.445,21.728 c 0.277,0.992 0.977,1.665 1.564,1.501 0.588,-0.164 0.84,-1.101 0.564,-2.094 -0.277,-0.993 -0.977,-1.665 -1.565,-1.501 -0.587,0.164 -0.839,1.101 -0.563,2.094 m 0.056,21.244 c -0.442,-0.119 -0.928,0.264 -1.087,0.854 -0.158,0.589 0.072,1.164 0.513,1.282 0.442,0.119 0.929,-0.263 1.087,-0.853 0.158,-0.59 -0.071,-1.164 -0.513,-1.283 m 1.149,-9.663 c 0.452,0.071 0.904,-0.414 1.01,-1.084 0.106,-0.671 -0.174,-1.272 -0.626,-1.343 -0.452,-0.072 -0.904,0.414 -1.01,1.084 -0.106,0.67 0.174,1.271 0.626,1.343 m -44.085,-65.21 c -0.922,-2.219 -1.72,-4.482 -2.337,-6.795 -0.642,-2.306 -1.099,-4.662 -1.428,-7.042 -0.32,-2.384 -0.481,-4.793 -0.552,-7.241 -0.499,2.4 -0.641,4.877 -0.517,7.339 0.116,2.466 0.53,4.917 1.166,7.306 0.66,2.383 1.545,4.706 2.694,6.891 1.139,2.187 2.517,4.25 4.163,6.066 -1.176,-2.148 -2.257,-4.307 -3.189,-6.524 m 2.798,-16.461 c -0.135,-1.171 -0.736,-2.063 -1.341,-1.993 -0.606,0.07 -0.988,1.076 -0.853,2.246 0.136,1.171 0.736,2.064 1.342,1.994 0.606,-0.07 0.988,-1.076 0.852,-2.247 m -4.129,-7.455 c 0.017,0.731 0.4,1.316 0.858,1.306 0.457,-0.01 0.815,-0.611 0.799,-1.342 -0.016,-0.732 -0.4,-1.316 -0.857,-1.306 -0.458,0.01 -0.815,0.61 -0.8,1.342 m 2.552,-9.152 c -0.231,-0.193 -0.653,-0.131 -1.123,0.203 -0.468,0.329 -0.968,0.942 -1.283,1.73 -0.314,0.789 -0.373,1.577 -0.261,2.138 0.112,0.566 0.375,0.902 0.676,0.921 0.307,0.02 0.596,-0.257 0.865,-0.667 0.269,-0.413 0.528,-0.96 0.772,-1.573 0.245,-0.613 0.434,-1.188 0.524,-1.673 0.086,-0.482 0.067,-0.882 -0.17,-1.079 m 15.921,33.254 c 2.863,6.626 6.717,12.706 10.754,18.574 4.097,5.867 8.649,11.34 12.686,17.096 2.023,2.883 3.904,5.837 5.533,8.933 0.415,0.769 0.779,1.558 1.163,2.347 0.355,0.789 0.709,1.588 1.053,2.387 0.657,1.578 1.122,3.237 1.436,4.927 1.234,6.768 -0.354,13.576 -3.844,19.605 -0.283,0.516 -0.597,1.022 -0.921,1.518 -4.431,5.584 -7.567,8.932 -14.152,12.534 7.951,-4.391 12.756,-14.709 12.058,-26.819 -0.131,-2.458 -0.576,-4.906 -1.345,-7.253 -0.172,-0.597 -0.425,-1.173 -0.638,-1.75 C 19.728,98.817 19.505,98.231 19.212,97.695 18.635,96.622 18.079,95.54 17.482,94.478 7.325,77.513 -6.625,74.599 -19.857,53.143 c -0.041,-0.071 -15.448,-17.845 -2.479,-41.427 1.275,-2.357 2.792,-4.542 4.613,-6.474 1.821,-1.932 3.915,-3.591 6.201,-4.927 6.06,-3.56 18.422,-3.146 19.94,-2.863 -9.763,2.621 -24.33,21.953 -12.221,49.833"/>
        </g>
        <g transform="translate(347.7372,69.4299)" id="g748">
          <path id="path750" style="fill-opacity: 1; fill-rule: nonzero; stroke: none; fill: rgb(50, 50, 50); opacity: 0.12;" d="M 0,0 C -0.921,-0.202 -1.892,-0.223 -2.843,-0.01 -2.256,-0.577 -1.78,-1.264 -1.477,-2.023 -0.991,-1.346 -0.506,-0.668 0,0"/>
        </g>
        <g transform="translate(345.1576,138.0181)" id="g752">
          <path id="path754" style="fill-opacity: 1; fill-rule: nonzero; stroke: none; fill: rgb(50, 50, 50); opacity: 0.12;" d="M 0,0 C 0.02,0.425 0.111,0.87 0.273,1.295 0.172,1.143 0.071,1.002 -0.061,0.86 -0.506,0.425 -1.072,0.111 -1.679,-0.051 c -1.042,-0.263 -2.125,-0.161 -3.106,0.172 0.486,-0.384 0.941,-0.779 1.376,-1.203 1.831,-1.346 2.762,-2.155 3.804,-3.116 -0.355,0.799 -0.547,1.659 -0.537,2.519 0,0.425 0.051,0.85 0.142,1.264 -0.01,0.132 -0.01,0.273 0,0.415"/>
        </g>
        <g transform="translate(336.0529,51.4735)" id="g756">
          <path id="path758" style="fill-opacity: 1; fill-rule: nonzero; stroke: none; fill: rgb(50, 50, 50); opacity: 0.12;" d="m 0,0 c 0.526,-0.465 0.971,-1.001 1.345,-1.558 0.011,0.142 0.041,0.294 0.061,0.445 C 1.538,-0.445 1.76,0.233 2.124,0.809 1.932,0.749 1.73,0.708 1.528,0.678 1.082,0.364 0.567,0.132 0,0"/>
        </g>
        <g transform="translate(355.2131,83.3701)" id="g760">
          <path id="path762" style="fill-opacity: 1; fill-rule: nonzero; stroke: none; fill: rgb(50, 50, 50); opacity: 0.12;" d="M 0,0 C -0.223,0.051 -0.435,0.111 -0.637,0.192 -0.273,-0.202 0,-0.668 0.202,-1.133 0.465,-1.76 0.587,-2.408 0.637,-3.055 c 0.405,0.587 0.81,1.173 1.204,1.77 0.294,0.456 0.587,0.921 0.87,1.386 C 1.851,-0.132 0.921,-0.202 0,0"/>
        </g>
        <g transform="translate(356.9927,93.8062)" id="g764">
          <path id="path766" style="fill-opacity: 1; fill-rule: nonzero; stroke: none; fill: rgb(50, 50, 50); opacity: 0.12;" d="M 0,0 C 0.234,0.51 0.525,0.999 0.94,1.428 1.143,1.642 1.385,1.843 1.667,2.007 1.945,2.174 2.286,2.304 2.668,2.32 3.047,2.34 3.439,2.215 3.715,2.011 4.007,1.809 4.174,1.564 4.328,1.295 4.617,0.721 4.547,0.053 4.192,-0.343 4.198,0.175 3.976,0.599 3.68,0.812 3.524,0.92 3.343,1.036 3.197,1.06 3.046,1.093 2.937,1.076 2.829,1.032 2.617,0.952 2.349,0.705 2.12,0.396 1.888,0.088 1.685,-0.283 1.516,-0.665 1.189,-1.431 0.959,-2.291 1.039,-3.013 1.079,-3.375 1.193,-3.676 1.49,-3.951 1.782,-4.219 2.199,-4.419 2.717,-4.352 2.362,-4.767 1.688,-4.849 1.118,-4.674 0.533,-4.513 0.003,-3.964 -0.21,-3.382 -0.654,-2.193 -0.427,-1.02 0,0 m -7.562,-13.072 c 0.241,0.171 0.517,0.322 0.825,0.429 0.305,0.11 0.665,0.172 1.043,0.114 0.376,-0.053 0.736,-0.251 0.969,-0.504 0.247,-0.256 0.364,-0.528 0.463,-0.821 0.173,-0.62 -0.024,-1.261 -0.449,-1.582 0.106,0.508 -0.03,0.966 -0.281,1.232 -0.132,0.136 -0.287,0.285 -0.426,0.337 -0.141,0.061 -0.252,0.065 -0.365,0.043 -0.224,-0.038 -0.535,-0.229 -0.819,-0.487 -0.287,-0.258 -0.557,-0.584 -0.796,-0.926 -0.468,-0.688 -0.86,-1.488 -0.921,-2.212 -0.03,-0.362 0.024,-0.68 0.263,-1.007 0.235,-0.32 0.605,-0.596 1.126,-0.63 -0.427,-0.339 -1.105,-0.289 -1.63,-0.009 -0.544,0.272 -0.959,0.912 -1.056,1.524 -0.206,1.253 0.242,2.36 0.857,3.279 0.328,0.455 0.708,0.878 1.197,1.22 m -12.546,-18.834 c 0.327,0.455 0.707,0.879 1.196,1.22 0.241,0.172 0.517,0.323 0.825,0.429 0.305,0.11 0.665,0.172 1.043,0.115 0.376,-0.054 0.736,-0.252 0.968,-0.505 0.248,-0.255 0.365,-0.528 0.464,-0.82 0.173,-0.62 -0.024,-1.262 -0.449,-1.583 0.106,0.509 -0.03,0.967 -0.28,1.233 -0.133,0.136 -0.288,0.285 -0.427,0.336 -0.141,0.062 -0.252,0.066 -0.366,0.044 -0.223,-0.038 -0.534,-0.229 -0.818,-0.488 -0.287,-0.258 -0.557,-0.583 -0.796,-0.926 -0.468,-0.688 -0.86,-1.487 -0.921,-2.211 -0.03,-0.363 0.024,-0.681 0.263,-1.008 0.235,-0.319 0.605,-0.596 1.126,-0.629 -0.427,-0.339 -1.105,-0.29 -1.63,-0.009 -0.544,0.271 -0.959,0.911 -1.056,1.524 -0.206,1.252 0.242,2.359 0.858,3.278 m -6.114,-19.67 c 0.106,0.581 0.284,1.164 0.637,1.696 0.691,1.123 2.125,1.578 3.15,1.15 -1.055,-0.288 -1.764,-0.989 -2,-1.752 -0.141,-0.391 -0.205,-0.843 -0.232,-1.291 -0.032,-0.449 -0.017,-0.911 0.045,-1.36 0.048,-0.451 0.149,-0.893 0.294,-1.299 0.141,-0.408 0.328,-0.791 0.588,-1.081 0.131,-0.14 0.268,-0.289 0.442,-0.383 0.172,-0.128 0.326,-0.192 0.536,-0.232 0.407,-0.076 0.899,0.007 1.291,0.397 -0.053,-0.574 -0.605,-1.057 -1.228,-1.208 -0.308,-0.078 -0.687,-0.071 -0.988,0.026 -0.161,0.036 -0.322,0.081 -0.465,0.162 -0.142,0.077 -0.311,0.137 -0.43,0.244 -0.552,0.374 -0.923,0.912 -1.19,1.456 -0.269,0.55 -0.425,1.132 -0.493,1.716 -0.072,0.584 -0.065,1.175 0.043,1.759 m -5.233,-11.679 c 1.143,-1.011 2.55,-1.756 4.159,-2.212 -1.664,-0.239 -3.461,0.209 -4.935,1.178 -0.754,0.466 -1.41,1.092 -1.973,1.795 -0.55,0.711 -0.982,1.504 -1.297,2.33 -0.627,1.656 -0.816,3.423 -0.703,5.111 0.1,1.696 0.451,3.324 0.96,4.918 0.171,-1.669 0.184,-3.312 0.328,-4.9 0.149,-1.587 0.42,-3.121 0.962,-4.538 0.533,-1.421 1.356,-2.669 2.499,-3.682 m 3.682,-19.142 c 0.819,-1.499 1.795,-2.908 2.907,-4.227 1.122,-1.313 2.388,-2.513 3.791,-3.662 -1.736,0.542 -3.337,1.527 -4.713,2.756 -1.387,1.223 -2.547,2.71 -3.438,4.338 -0.889,1.631 -1.514,3.409 -1.795,5.237 -0.291,1.821 -0.258,3.7 0.221,5.454 0.208,-1.801 0.535,-3.515 1.035,-5.168 0.511,-1.649 1.17,-3.231 1.992,-4.728 M 4.734,15.57 c 0.125,0.535 0.309,1.06 0.618,1.55 0.15,0.245 0.34,0.482 0.572,0.691 0.227,0.211 0.519,0.399 0.867,0.487 0.345,0.092 0.729,0.056 1.026,-0.081 0.309,-0.133 0.522,-0.325 0.724,-0.543 0.392,-0.477 0.475,-1.12 0.236,-1.583 -0.067,0.505 -0.348,0.901 -0.686,1.081 -0.175,0.09 -0.375,0.183 -0.54,0.185 C 7.383,17.37 7.254,17.34 7.135,17.273 6.896,17.146 6.663,16.831 6.486,16.472 6.306,16.111 6.176,15.695 6.082,15.276 5.909,14.439 5.858,13.525 6.116,12.801 6.246,12.442 6.45,12.145 6.821,11.956 7.182,11.763 7.646,11.676 8.121,11.87 7.837,11.419 7.208,11.232 6.637,11.303 6.057,11.368 5.461,11.776 5.157,12.294 4.525,13.34 4.521,14.509 4.734,15.57 M 3.673,10.96 C 4.28,9.888 5.282,9.088 6.334,9.088 c 2.984,-0.02 4.188,3.602 3.996,6.08 -0.051,0.698 -0.071,1.386 -0.264,2.054 C 9.905,17.879 9.692,18.527 9.368,19.093 9.227,19.397 9.025,19.64 8.842,19.903 8.63,20.125 8.428,20.378 8.175,20.55 7.942,20.762 7.649,20.874 7.386,21.026 7.143,21.117 6.87,21.167 6.577,21.137 5.99,21.076 5.383,20.793 4.887,20.317 4.371,19.862 3.946,19.255 3.501,18.648 c 0.172,0.729 0.425,1.447 0.87,2.114 0.445,0.658 1.153,1.225 2.064,1.437 C 6.222,23.029 5.98,23.828 5.737,24.627 5.484,24.253 5.16,23.919 4.776,23.656 3.855,23.008 2.631,22.846 1.539,23.079 c -1.113,0.213 -2.135,0.84 -2.914,1.619 -0.445,0.455 -0.809,0.961 -1.123,1.497 1.396,-4.482 1.781,-9.287 1.032,-13.95 C -1.759,10.434 -2.204,8.653 -2.872,6.934 -3.206,6.084 -3.57,5.264 -3.924,4.435 -4.309,3.615 -4.673,2.796 -5.088,1.997 c -1.628,-3.217 -3.53,-6.282 -5.543,-9.236 -4.047,-5.908 -8.65,-11.341 -12.585,-17.168 -31.937,-47.384 -1.001,-65.047 0,-65.462 1.163,-0.475 2.398,-0.738 3.662,-0.738 1.012,0.303 2.023,0.647 3.005,1.042 0.071,0.07 0.141,0.141 0.202,0.222 -0.051,-0.081 -0.111,-0.141 -0.162,-0.212 0.496,0.202 0.992,0.414 1.467,0.637 -0.931,-0.182 -1.851,-0.202 -2.802,-0.131 -0.951,0.07 -1.912,0.303 -2.802,0.718 -0.891,0.404 -1.69,1.011 -2.378,1.608 -1.426,1.224 -2.589,2.711 -3.55,4.31 -2.246,3.915 -4.563,12.949 0.748,17.187 -0.607,0.041 -1.173,0.193 -1.72,0.385 -6.828,2.458 -8.973,14.638 -2.64,21.426 -4.825,-8.619 -1.538,-18.078 3.166,-20.081 0.587,-0.233 1.235,-0.425 1.801,-0.435 0.668,0 1.366,0.192 2.033,0.496 -0.495,-0.01 -0.991,0.04 -1.456,0.182 -0.739,0.212 -1.386,0.587 -1.953,1.042 -0.566,0.455 -1.052,1.001 -1.426,1.598 -0.789,1.224 -1.072,2.6 -1.184,3.925 -0.081,1.336 0.021,2.631 0.192,3.926 0.193,-1.295 0.314,-2.58 0.607,-3.804 0.284,-1.214 0.729,-2.408 1.437,-3.308 0.728,-0.89 1.689,-1.639 2.731,-1.872 0.516,-0.121 1.042,-0.141 1.528,-0.02 2.812,0.708 6.302,6.95 4.309,12.918 -1.325,3.946 -4.906,6.141 -7.981,3.45 -1.386,-1.224 -2.165,-3.136 -3.025,-4.987 0.091,1.022 0.273,2.033 0.567,3.045 0.323,0.991 0.789,2.003 1.537,2.843 0.729,0.839 1.73,1.547 2.934,1.79 0.465,0.091 0.941,0.111 1.406,0.081 -0.9,0.445 -1.912,0.668 -2.964,0.617 -1.113,-0.05 -2.236,-0.364 -3.308,-0.981 0.688,1.052 1.871,1.77 3.166,2.043 0.172,0.041 0.354,0.071 0.547,0.091 -0.435,0.435 -0.8,0.921 -1.103,1.447 -0.556,1.012 -0.83,2.124 -0.911,3.237 -0.07,1.113 0.051,2.206 0.314,3.258 0.263,1.052 0.668,2.073 1.214,2.994 1.072,1.851 2.671,3.389 4.552,4.269 -1.477,-1.447 -2.63,-3.075 -3.399,-4.856 -0.758,-1.77 -1.143,-3.692 -1.032,-5.554 0.061,-0.92 0.274,-1.821 0.658,-2.62 0.384,-0.799 0.961,-1.517 1.679,-2.043 0.567,-0.415 1.234,-0.688 1.922,-0.759 -0.364,0.162 -0.738,0.324 -1.031,0.567 -1.245,0.961 -1.852,2.428 -1.943,3.824 -0.05,0.708 -0.01,1.416 0.162,2.084 0.162,0.657 0.415,1.294 0.708,1.881 0.607,1.184 1.376,2.216 2.206,3.197 -0.516,-1.174 -1.093,-2.317 -1.457,-3.5 -0.385,-1.184 -0.546,-2.378 -0.344,-3.501 0.202,-1.122 0.738,-2.164 1.578,-2.721 0.829,-0.577 1.851,-0.577 2.883,-0.142 1.042,0.385 2.013,1.134 2.903,1.933 0.901,0.809 1.7,1.74 2.378,2.731 0.9,1.376 1.335,2.236 1.396,4.633 0.04,0.769 0.02,1.538 -0.152,2.246 -0.132,0.718 -0.445,1.346 -0.91,1.771 -0.456,0.434 -1.154,0.677 -1.842,0.728 -0.708,0.03 -1.446,-0.162 -2.134,-0.516 -0.708,-0.344 -1.346,-0.84 -1.953,-1.416 0.365,0.758 0.911,1.426 1.579,1.983 0.688,0.536 1.527,0.95 2.478,1.021 0.445,0.041 0.88,0 1.315,-0.121 -0.971,0.637 -2.104,0.981 -3.298,0.92 -1.285,-0.07 -2.6,-0.536 -3.743,-1.416 0.708,1.275 2.094,2.195 3.612,2.479 0.759,0.151 1.558,0.131 2.316,-0.041 -0.465,0.425 -0.89,0.921 -1.213,1.487 -0.759,1.376 -0.81,3.015 -0.476,4.401 0.344,1.406 0.981,2.66 1.76,3.783 0.769,1.133 1.69,2.135 2.691,3.035 1.012,0.88 2.104,1.69 3.328,2.226 -1.021,-0.84 -1.932,-1.781 -2.751,-2.782 -0.82,-0.992 -1.558,-2.054 -2.175,-3.156 -0.597,-1.113 -1.123,-2.256 -1.325,-3.44 -0.223,-1.153 -0.152,-2.327 0.394,-3.268 0.263,-0.475 0.627,-0.9 1.062,-1.274 l 0.334,-0.273 0.304,-0.193 c -0.132,0.172 -0.253,0.355 -0.354,0.547 -0.506,0.89 -0.709,1.952 -0.658,2.933 0.061,0.982 0.324,1.923 0.749,2.762 0.819,1.71 2.114,2.984 3.469,4.107 -0.839,-1.558 -1.79,-3.034 -2.276,-4.582 -0.495,-1.548 -0.556,-3.177 0.162,-4.421 0.344,-0.627 0.86,-1.153 1.457,-1.447 0.597,-0.293 1.335,-0.354 2.094,-0.232 0.334,0.05 0.668,0.151 1.002,0.273 0.101,0.04 2.427,0.88 4.026,4.39 0.576,1.265 0.85,2.641 0.829,3.996 -0.02,0.678 -0.101,1.346 -0.313,1.953 -0.192,0.617 -0.536,1.153 -0.992,1.507 -0.465,0.334 -1.102,0.465 -1.79,0.364 -0.688,-0.081 -1.396,-0.334 -2.115,-0.556 0.577,0.485 1.204,0.92 1.953,1.204 0.526,0.212 1.173,0.293 1.79,0.161 -0.485,0.405 -0.91,0.891 -1.213,1.427 -0.699,1.214 -1.012,2.579 -0.961,3.915 0.05,1.345 0.445,2.589 0.95,3.753 0.526,1.143 1.164,2.215 1.872,3.237 -0.769,-2.347 -1.669,-4.694 -1.528,-6.97 0.091,-1.123 0.395,-2.226 0.992,-3.106 0.576,-0.9 1.426,-1.527 2.407,-1.719 0.213,-0.051 0.425,-0.071 0.638,-0.081 -0.051,0.03 -0.101,0.05 -0.142,0.091 -0.506,0.364 -0.89,0.88 -1.113,1.436 -0.202,0.567 -0.212,1.204 0.031,1.71 0.101,-1.103 0.849,-1.851 1.649,-2.226 0.789,-0.384 1.699,-0.303 2.549,0.02 0.374,0.142 0.728,0.334 1.062,0.557 0.992,0.87 1.548,1.78 2.054,2.731 0.404,1.315 0.991,3.521 0.87,5.453 C 6.131,1.795 5.929,2.695 5.474,3.403 5.251,3.757 4.998,4.091 4.654,4.354 4.351,4.657 4.017,4.789 3.643,4.88 2.884,5.042 2.004,4.758 1.245,4.293 0.487,3.818 -0.12,3.11 -0.606,2.27 -1.102,1.44 -1.466,0.5 -1.891,-0.421 c 0.132,1.002 0.324,1.993 0.678,2.974 0.182,0.486 0.415,0.961 0.718,1.417 0.304,0.455 0.688,0.849 1.123,1.193 C 0.861,5.355 1.114,5.517 1.387,5.669 1.002,5.598 0.608,5.467 0.223,5.285 -0.667,4.85 -1.476,4.131 -2.316,3.423 -1.84,4.415 -1.183,5.345 -0.212,6.023 0.264,6.367 0.83,6.6 1.427,6.731 2.034,6.863 2.692,6.822 3.279,6.64 3.784,6.478 4.23,6.236 4.634,5.942 4.958,5.801 5.261,5.618 5.504,5.406 5.97,5.062 6.344,4.597 6.657,4.121 6.85,3.787 7.001,3.443 7.123,3.089 7.477,4.506 7.76,5.942 7.973,7.379 7.861,7.298 7.75,7.217 7.639,7.136 7.113,6.782 6.485,6.539 5.838,6.428 4.513,6.215 3.177,6.66 2.125,7.409 1.599,7.783 1.144,8.259 0.77,8.795 0.406,9.331 0.102,9.898 -0.11,10.494 c -0.82,2.388 -0.668,4.947 0.151,7.234 0.203,0.556 0.446,1.133 0.789,1.659 0.334,0.516 0.739,0.991 1.194,1.396 0.911,0.809 2.114,1.335 3.298,1.254 C 4.169,21.804 3.198,21.157 2.5,20.307 1.781,19.458 1.336,18.476 1.063,17.404 0.79,16.332 0.628,15.229 0.648,14.136 0.658,13.044 0.82,11.951 1.195,10.96 1.549,9.958 2.095,9.068 2.914,8.451 3.703,7.804 4.715,7.45 5.717,7.5 6.071,7.52 6.425,7.601 6.759,7.733 6.607,7.723 6.455,7.702 6.303,7.702 5.454,7.723 4.624,8.077 4.017,8.603 3.42,9.139 2.965,9.786 2.702,10.505 2.156,11.941 2.247,13.398 2.49,14.764 2.813,13.408 3.056,12.042 3.673,10.96"/>
        </g>
        <g transform="translate(339.9857,143.8441)" id="g768">
          <path id="path770" style="fill-opacity: 1; fill-rule: nonzero; stroke: none; fill: rgb(50, 50, 50); opacity: 0.12;" d="M 0,0 C 0.206,0.954 1.251,1.245 1.652,0.79 1.346,0.795 1.126,0.643 1.013,0.469 0.887,0.271 0.816,0.077 0.865,-0.038 c 0.171,-0.604 1.926,-1.511 2.586,-0.798 0.168,0.163 0.313,0.38 0.333,0.684 0.424,-0.493 0.15,-1.441 -0.58,-1.755 C 1.939,-2.55 -0.164,-1.388 0,0 m -2.324,-1.395 c 0.151,-0.354 0.333,-0.708 0.556,-1.022 0.567,-0.819 1.315,-1.457 2.185,-1.831 0.921,-0.394 1.912,-0.637 2.883,-0.566 0.577,0.02 1.133,0.202 1.659,0.536 -0.677,-0.152 -1.396,-0.02 -1.901,0.384 0.829,-0.344 1.8,-0.172 2.367,0.385 0.576,0.546 0.779,1.416 0.516,2.094 C 5.678,-0.717 5.081,-0.1 4.393,0.355 3.715,0.831 2.936,1.164 2.127,1.326 1.328,1.518 0.458,1.539 -0.372,1.458 -1.191,1.377 -1.991,1.094 -2.122,0.517 c -0.162,-0.688 0.182,-1.528 0.769,-2.104 0.587,-0.607 1.416,-1.012 2.205,-1.437 -0.88,0.203 -1.77,0.456 -2.559,1.032 -0.233,0.172 -0.435,0.374 -0.617,0.597"/>
        </g>
        <g transform="translate(357.7069,126.8042)" id="g772">
          <path id="path774" style="fill-opacity: 1; fill-rule: nonzero; stroke: none; fill: rgb(50, 50, 50); opacity: 0.12;" d="M 0,0 C 0.11,0.295 0.41,0.634 0.769,0.715 1.127,0.802 1.384,0.734 1.655,0.635 2.172,0.383 2.444,-0.071 2.512,-0.522 2.187,-0.215 1.798,-0.006 1.479,-0.016 1.411,-0.017 1.324,-0.035 1.248,-0.045 1.18,-0.069 1.122,-0.094 1.092,-0.126 1.038,-0.19 1.043,-0.224 1.027,-0.34 1.008,-0.573 1.074,-0.947 1.184,-1.297 1.297,-1.654 1.44,-2.018 1.607,-2.372 1.942,-3.074 2.344,-3.781 2.832,-4.31 3.08,-4.565 3.326,-4.78 3.613,-4.799 3.912,-4.838 4.285,-4.649 4.467,-4.221 4.611,-4.665 4.309,-5.265 3.749,-5.462 3.168,-5.665 2.567,-5.428 2.157,-5.16 1.309,-4.59 0.762,-3.8 0.357,-2.955 0.162,-2.527 0.004,-2.079 -0.087,-1.598 -0.163,-1.116 -0.227,-0.602 0,0 M -1.189,3.768 C -1.067,3.849 -0.946,3.92 -0.814,3.981 -1.371,3.758 -1.867,3.445 -2.261,3.04 -2.929,2.382 -3.253,1.512 -3.384,0.582 -3.505,-0.339 -3.455,-1.3 -3.303,-2.251 c 0.152,-0.951 0.384,-1.892 0.738,-2.772 0.678,-1.75 1.902,-3.308 3.642,-3.854 0.86,-0.263 1.811,-0.273 2.651,0.121 0.162,0.071 0.313,0.162 0.465,0.274 -3.773,0.091 -4.552,3.085 -4.886,3.915 2.165,-2.853 4.158,-3.723 5.635,-2.843 0.03,0.02 1.284,0.698 1.204,2.812 -0.041,1.143 -0.415,2.287 -0.84,3.399 -3.298,8.72 -8.983,3.824 -7.092,-1.133 -1.042,0.982 -1.527,4.623 0.597,6.1"/>
        </g>
        <g transform="translate(347.9699,18.4946)" id="g776">
          <path id="path778" style="fill-opacity: 1; fill-rule: nonzero; stroke: none; fill: rgb(50, 50, 50); opacity: 0.12;" d="M 0,0 C 0.081,-0.344 0.152,-0.688 0.212,-1.032 0.405,-2.135 0.536,-3.247 0.496,-4.391 0.445,-5.534 0.243,-6.697 -0.243,-7.79 -0.506,-8.376 -0.85,-8.943 -1.285,-9.438 c -0.05,-0.314 -0.151,-0.618 -0.273,-0.911 -0.03,-0.071 -0.081,-0.142 -0.111,-0.212 0.738,0.617 1.457,1.254 2.074,2.013 C 3.612,-4.654 2.994,-2.873 0,0"/>
        </g>
        <g transform="translate(336.6477,21.3699)" id="g780">
          <path id="path782" style="fill-opacity: 1; fill-rule: nonzero; stroke: none; fill: rgb(50, 50, 50); opacity: 0.12;" d="M 0,0 C 0.106,0.36 0.273,0.695 0.52,0.961 0.762,1.227 1.084,1.422 1.415,1.46 0.908,1.035 0.767,0.429 0.802,-0.102 c 0.028,-0.543 0.247,-1.07 0.471,-1.645 0.463,-1.175 0.875,-2.31 1.508,-3.192 0.302,-0.417 0.712,-0.844 1.116,-1.152 0.201,-0.156 0.412,-0.274 0.584,-0.338 0.184,-0.056 0.271,-0.078 0.423,-0.03 0.32,0.105 0.707,0.596 0.954,1.119 0.276,0.531 0.478,1.121 0.61,1.761 C 6.704,-4.204 6.721,-4.894 6.637,-5.576 6.583,-5.917 6.494,-6.261 6.344,-6.608 6.191,-6.949 5.962,-7.307 5.566,-7.58 5.373,-7.71 5.123,-7.824 4.872,-7.862 4.618,-7.912 4.376,-7.89 4.154,-7.853 3.707,-7.774 3.347,-7.59 3.022,-7.396 2.379,-6.987 1.881,-6.503 1.432,-5.899 0.587,-4.698 0.263,-3.352 0.025,-2.102 -0.095,-1.464 -0.185,-0.726 0,0 m 6.709,-14.216 c -0.597,-0.162 -1.214,-0.232 -1.841,-0.212 -1.639,0.05 -3.207,0.779 -4.421,1.801 -1.224,1.021 -2.144,2.347 -2.792,3.722 -0.647,1.396 -1.062,2.833 -1.295,4.33 0.87,-1.234 1.599,-2.519 2.418,-3.682 0.809,-1.174 1.7,-2.236 2.731,-3.096 1.032,-0.86 2.206,-1.517 3.511,-1.78 0.081,-0.021 0.162,-0.031 0.243,-0.041 0.06,-0.01 0.121,-0.02 0.172,-0.02 0.95,0 1.881,0.334 2.65,0.86 0.739,0.556 1.295,1.355 1.659,2.236 0.354,0.89 0.496,1.871 0.506,2.862 0,2.004 -0.425,4.077 -1.133,5.979 C 8.419,0.675 7.387,2.476 6.102,4.064 5.455,4.874 4.767,5.622 3.978,6.229 3.189,6.836 2.329,7.322 1.418,7.524 0.498,7.737 -0.443,7.585 -1.272,7.119 -2.112,6.664 -2.81,5.906 -3.316,5.046 -3.832,4.176 -4.115,3.154 -4.297,2.122 -4.469,1.09 -4.53,0.018 -4.56,-1.054 -4.702,0.008 -4.803,1.08 -4.753,2.173 -4.702,3.265 -4.5,4.368 -4.034,5.41 -3.822,5.865 -3.559,6.3 -3.245,6.705 -3.64,6.502 -4.014,6.26 -4.368,5.997 -6.361,4.459 -8.354,1.707 -6.715,-4.423 c 0.425,-1.649 1.032,-3.257 1.922,-4.714 0.85,-1.477 1.902,-2.843 3.156,-3.976 0.627,-0.597 1.255,-1.103 1.973,-1.477 0.718,-0.364 1.497,-0.617 2.317,-0.749 1.659,-0.232 3.409,-0.162 4.886,0.638 0.738,0.374 1.386,0.981 1.831,1.719 -0.172,-0.141 -0.354,-0.293 -0.557,-0.414 -0.647,-0.395 -1.365,-0.688 -2.104,-0.82"/>
        </g>
        <g transform="translate(353.7463,130.6838)" id="g784">
          <path id="path786" style="fill-opacity: 1; fill-rule: nonzero; stroke: none; fill: rgb(50, 50, 50); opacity: 0.12;" d="M 0,0 C -0.708,-0.395 -1.528,-0.607 -2.347,-0.627 -3.318,-0.668 -4.279,-0.435 -5.149,0 c 0.182,-0.223 0.354,-0.455 0.526,-0.688 0.789,-0.961 1.527,-1.973 2.195,-3.035 0.759,-1.204 1.416,-2.478 1.993,-3.783 -0.314,1.446 -0.374,2.933 -0.04,4.421 0.121,0.526 0.323,1.062 0.617,1.537 0.283,0.486 0.687,0.911 1.122,1.224 C 1.791,0.051 2.398,0.293 3.015,0.405 2.873,0.607 2.742,0.809 2.6,1.012 2.357,1.356 2.104,1.679 1.861,2.003 1.77,1.851 1.669,1.71 1.558,1.578 1.487,1.487 1.426,1.396 1.325,1.305 1.022,0.769 0.556,0.324 0,0"/>
        </g>
        <g transform="translate(348.7715,138.1635)" id="g788">
          <path id="path790" style="fill-opacity: 1; fill-rule: nonzero; stroke: none; fill: rgb(50, 50, 50); opacity: 0.12;" d="M 0,0 C 0.104,0.258 0.296,0.485 0.516,0.613 0.738,0.75 0.956,0.802 1.185,0.836 1.665,0.881 2.124,0.651 2.312,0.288 1.956,0.469 1.578,0.454 1.316,0.313 1.013,0.167 0.833,-0.062 0.818,-0.26 0.769,-0.7 1.165,-1.335 1.606,-1.811 2.061,-2.289 2.62,-2.729 3.195,-2.872 3.48,-2.939 3.761,-2.934 4.049,-2.779 4.334,-2.631 4.599,-2.378 4.696,-1.988 4.855,-2.375 4.691,-2.857 4.397,-3.195 4.102,-3.541 3.584,-3.754 3.111,-3.73 2.149,-3.691 1.382,-3.176 0.796,-2.56 0.509,-2.239 0.252,-1.884 0.082,-1.46 -0.072,-1.045 -0.213,-0.534 0,0 m -0.903,-5.305 c 0.83,-0.809 1.872,-1.406 3.005,-1.638 -0.344,0.172 -0.668,0.394 -0.921,0.667 -0.415,0.435 -0.698,0.982 -0.738,1.558 0.667,-0.819 1.456,-1.356 2.326,-1.598 0.527,-0.071 1.012,-0.051 1.467,0.04 0.466,0.111 0.911,0.284 1.285,0.546 0.172,0.122 0.334,0.274 0.486,0.425 0.141,0.273 0.232,0.567 0.273,0.87 0.111,0.921 -0.142,1.892 -0.577,2.772 -0.435,0.89 -1.022,1.71 -1.73,2.408 C 3.275,1.453 2.466,2.05 1.576,2.374 1.131,2.536 0.675,2.616 0.23,2.596 -0.215,2.556 -0.66,2.424 -0.953,2.161 c -0.628,-0.526 -0.708,-1.629 -0.526,-2.6 0.192,-0.991 0.546,-2.003 1.173,-2.842 -0.819,0.688 -1.345,1.679 -1.699,2.711 -0.142,0.475 -0.233,0.971 -0.233,1.497 -0.172,-0.314 -0.324,-0.637 -0.445,-0.991 -0.061,-0.577 -0.071,-1.144 0,-1.7 0.172,-1.366 0.819,-2.6 1.78,-3.541"/>
        </g>
        <g transform="translate(331.6759,145.8412)" id="g792">
          <path id="path794" style="fill-opacity: 1; fill-rule: nonzero; stroke: none; fill: rgb(50, 50, 50); opacity: 0.12;" d="M 0,0 C 0.064,0.208 0.24,0.397 0.442,0.404 0.155,0.146 0.261,-0.251 0.43,-0.414 0.624,-0.602 0.93,-0.69 1.252,-0.711 1.907,-0.768 2.566,-0.618 3.247,-0.284 2.86,-0.959 2.012,-1.331 1.205,-1.261 0.809,-1.223 0.343,-1.08 0.085,-0.669 -0.048,-0.461 -0.065,-0.208 0,0 m -1.44,-1.409 c -0.182,0.08 -0.354,0.202 -0.485,0.364 0.111,-0.354 0.333,-0.648 0.607,-0.88 0.596,-0.486 1.375,-0.668 2.225,-0.749 0.87,-0.071 1.74,-0.162 2.499,0.03 0.374,0.102 0.718,0.274 1.012,0.557 0.232,0.222 0.414,0.496 0.505,0.84 C 4.711,-1.47 4.478,-1.602 4.235,-1.703 3.649,-1.966 2.991,-1.976 2.415,-1.875 c 0.586,0.152 1.133,0.304 1.568,0.648 0.212,0.151 0.404,0.344 0.465,0.516 C 4.731,0.098 3.406,1.332 1.939,1.595 0.472,1.696 -0.428,1.302 -1.126,0.725 -1.298,0.573 -1.44,0.401 -1.521,0.179 c -0.06,-0.101 -0.071,-0.233 -0.101,-0.344 0,-0.121 -0.02,-0.273 -0.01,-0.364 0.03,-0.425 0.516,-0.961 1.103,-0.779 -0.223,-0.213 -0.607,-0.233 -0.911,-0.101"/>
        </g>
        <g transform="translate(336.5385,143.4304)" id="g796">
          <path id="path798" style="fill-opacity: 1; fill-rule: nonzero; stroke: none; fill: rgb(50, 50, 50); opacity: 0.12;" d="m 0,0 c -0.253,-0.445 -0.678,-0.83 -1.153,-1.042 -0.476,-0.223 -0.992,-0.304 -1.477,-0.344 -0.344,-0.03 -0.668,-0.02 -0.992,0 1.74,-0.587 3.44,-1.335 5.018,-2.256 C 1.123,-3.298 0.89,-2.924 0.718,-2.529 0.283,-1.548 0.162,-0.415 0.475,0.566 0.465,0.728 0.465,0.9 0.486,1.072 0.516,1.416 0.688,1.74 0.91,1.993 0.738,2.064 0.566,2.134 0.384,2.195 0.425,1.902 0.395,1.578 0.212,1.345 0.202,1.325 0.182,1.305 0.162,1.285 0.293,0.88 0.212,0.394 0,0"/>
        </g>
      </g>
    </g>
  </g>
</svg>